<?xml version="1.0" encoding="UTF-8" standalone="no"?>
<svg version="1.1" xmlns="http://www.w3.org/2000/svg" xmlns:xlink="http://www.w3.org/1999/xlink" xmlns:i="http://ns.adobe.com/AdobeIllustrator/10.0/" width="336" height="576">
	<g id="dp_dp001">
		<path id="dp_path002" fill="none" fill-rule="evenodd" stroke="black" stroke-width="7.33333" d="M 323.717,200.296 C 314.159,231.828 292.817,266.472 276.928,299.361 C 241.173,373.371 246.319,359.581 242.227,391.896 C 281.297,410.773 227.096,430.109 248.091,453.351 C 254.756,460.729 264.189,484.145 259.105,491.096 C 257.505,493.284 247.852,502.576 248.757,505.608 C 252.54,518.269 264.875,523.151 250.091,534.935 C 233.564,548.108 221.108,541.953 210.293,547.56 C 200.5,552.637 198.488,566.187 188.585,569.096 C 181.893,571.063 173.148,571.784 160.279,571.737"/>
		<path id="dp_path003" fill="none" fill-rule="evenodd" stroke="black" stroke-width="7.33333" stroke-linecap="round" d="M 116.757,389.896 C 135.924,380.103 126.439,304.28 96.8613,280.569"/>
		<path id="dp_path004" fill="none" fill-rule="evenodd" stroke="black" stroke-width="7.33333" d="M 11.8133,198.081 C 21.4547,229.613 43.888,266.472 59.9147,299.361 C 76.844,334.104 84.6827,349.499 88.6613,359.396 C 93.1587,370.584 92.7267,374.751 94.916,391.896 C 55.5067,410.773 110.177,430.109 89.0013,453.351 C 82.2787,460.729 72.7627,484.145 77.8907,491.096 C 79.5053,493.284 89.2427,502.576 88.3293,505.608 C 84.5133,518.269 72.072,523.151 86.984,534.935 C 103.653,548.108 116.217,541.953 127.125,547.56 C 137.004,552.637 139.033,566.187 149.021,569.096 C 155.772,571.063 165.905,573.829 178.692,571.227"/>
		<path id="dp_path005" fill="none" fill-rule="evenodd" stroke="black" stroke-width="7.33333" d="M 11.8707,198.081 C 11.5987,197.955 11.4867,196.205 11.4547,196.027 C 11.0947,194.015 10.8427,192.136 10.6253,190.265 C 7.70133,165.103 10.644,134.892 20.0653,110.077 C 42.7773,50.256 102.472,4.92267 168.328,3.76667 C 256.977,5.048 326.58,80.2533 327.489,165.111 C 327.657,180.749 325.445,200.493 321.152,205.871"/>
		<path id="dp_path006" fill="none" fill-rule="evenodd" stroke="black" stroke-width="7.33333" d="M 92.3573,389.896 C 153.94,390.429 181.945,390.963 243.557,391.496"/>
		<path id="dp_path007" fill="none" fill-rule="evenodd" stroke="black" stroke-width="7.33333" d="M 80.3573,465.896 C 110.251,461.717 150.776,459.805 182.757,452.296 C 195.995,449.188 235.139,430.963 244.924,429.499 C 246.057,429.329 246.591,431.649 247.557,430.696"/>
		<path id="dp_path008" fill="none" fill-rule="evenodd" stroke="black" stroke-width="7.33333" stroke-linecap="round" d="M 224.001,391.429 C 204.475,381.076 185.184,347.864 253.719,279.427"/>
	</g>
	<g id="dp_dp009" transform="matrix(1,0,0,1,-913.63,-1874.01)">
		<path id="dp_path010" fill="black" d="M 1073.92,2051.74 C 1072.64,2064.26 1070.5,2073.97 1067.52,2080.86 C 1065.45,2085.56 1062.47,2089.43 1058.56,2092.49 C 1057.06,2093.7 1055.55,2094.62 1054.02,2095.26 C 1052.49,2095.9 1050.73,2096.13 1048.74,2095.96 C 1046.75,2095.78 1044.9,2095.01 1043.2,2093.66 C 1039.14,2090.46 1038.08,2086.05 1040,2080.44 C 1041.06,2077.38 1043.13,2073.89 1046.18,2069.98 C 1048.96,2066.36 1051.84,2062.98 1054.82,2059.85 C 1049.56,2060.13 1045.44,2058.96 1042.45,2056.33 C 1039.04,2053.34 1037.44,2048.9 1037.65,2043 C 1037.79,2038.09 1039.05,2032.99 1041.44,2027.69 C 1043.82,2022.39 1046.65,2018.18 1049.92,2015.05 C 1052.12,2012.92 1054.54,2011.25 1057.17,2010.04 C 1061.65,2007.97 1065.13,2008.22 1067.62,2010.78 C 1070.68,2013.91 1072.74,2018.89 1073.81,2025.72 C 1074.66,2031.19 1074.88,2037.59 1074.45,2044.92 C 1077.58,2043.42 1080.64,2042.46 1083.62,2042.04 C 1084.41,2041.97 1085.12,2042.16 1085.76,2042.62 C 1086.4,2043.09 1086.77,2043.71 1086.88,2044.49 C 1086.98,2045.27 1086.81,2045.98 1086.34,2046.62 C 1085.88,2047.26 1085.26,2047.65 1084.48,2047.8 C 1081.13,2048.29 1077.61,2049.61 1073.92,2051.74 Z M 1068.37,2048.33 L 1068.48,2048.33 L 1068.69,2045.34 C 1069.12,2038.09 1068.94,2031.87 1068.16,2026.68 C 1067.23,2020.99 1065.7,2017.04 1063.57,2014.84 C 1062.93,2014.2 1061.61,2014.34 1059.62,2015.26 C 1057.56,2016.19 1055.68,2017.47 1053.97,2019.1 C 1051.2,2021.81 1048.76,2025.47 1046.66,2030.09 C 1044.57,2034.71 1043.48,2039.09 1043.41,2043.21 C 1043.27,2047.26 1044.19,2050.21 1046.18,2052.06 C 1048.67,2054.2 1052.73,2054.69 1058.34,2053.56 C 1059.48,2053.34 1060.6,2052.99 1061.7,2052.49 C 1062.81,2051.99 1063.66,2051.55 1064.26,2051.16 C 1064.87,2050.77 1065.95,2049.97 1067.52,2048.76 C 1067.8,2048.54 1068.09,2048.4 1068.37,2048.33 Z M 1067.62,2056.01 C 1061.86,2060.49 1056.21,2066.29 1050.66,2073.4 C 1048.03,2076.88 1046.29,2079.83 1045.44,2082.25 C 1044.44,2085.38 1044.9,2087.69 1046.82,2089.18 C 1049.1,2090.96 1051.84,2090.57 1055.04,2088.01 C 1058.17,2085.52 1060.55,2082.36 1062.18,2078.52 C 1064.46,2073.33 1066.27,2065.82 1067.62,2056.01 Z "/>
		<path id="dp_path011" fill="black" d="M 1109.12,2045.66 C 1109.19,2045.66 1109.26,2045.7 1109.33,2045.77 C 1109.9,2046.34 1110.22,2047.05 1110.29,2047.9 C 1110.36,2048.54 1110.25,2049.29 1109.97,2050.14 C 1109.97,2050.29 1109.79,2050.71 1109.44,2051.42 L 1109.33,2051.96 C 1108.9,2054.23 1108.69,2055.41 1108.69,2055.48 C 1108.55,2056.69 1108.44,2057.89 1108.37,2059.1 C 1108.23,2060.45 1108.16,2061.24 1108.16,2061.45 C 1108.16,2064.29 1108.44,2066.57 1109.01,2068.28 C 1109.79,2070.2 1110.97,2071.37 1112.53,2071.8 C 1113.95,2072.15 1115.27,2071.8 1116.48,2070.73 C 1117.76,2069.59 1119.04,2067.64 1120.32,2064.86 C 1121.24,2062.8 1122.2,2060.06 1123.2,2056.65 C 1124.55,2052.38 1125.29,2050.07 1125.44,2049.72 C 1125.72,2048.93 1126.22,2048.38 1126.93,2048.06 C 1127.64,2047.74 1128.37,2047.73 1129.12,2048.01 C 1129.86,2048.29 1130.4,2048.79 1130.72,2049.5 C 1131.04,2050.21 1131.05,2050.93 1130.77,2051.64 C 1130.7,2051.92 1130.02,2054.16 1128.74,2058.36 C 1127.68,2061.91 1126.61,2064.9 1125.54,2067.32 C 1123.98,2070.8 1122.2,2073.4 1120.21,2075.1 C 1117.44,2077.52 1114.38,2078.27 1111.04,2077.34 C 1107.48,2076.35 1105.03,2073.97 1103.68,2070.2 C 1103.46,2069.7 1103.29,2069.13 1103.14,2068.49 C 1102.57,2069.49 1101.97,2070.37 1101.33,2071.16 C 1099.13,2074.14 1096.81,2075.99 1094.4,2076.7 C 1091.05,2077.7 1088.03,2076.6 1085.33,2073.4 C 1083.34,2071.05 1082.45,2067.46 1082.66,2062.62 C 1082.88,2058.5 1083.84,2054.3 1085.54,2050.04 C 1087.39,2045.41 1089.7,2042 1092.48,2039.8 C 1096.25,2036.95 1100.16,2036.63 1104.21,2038.84 C 1106.49,2040.19 1107.94,2041.57 1108.58,2043 C 1108.8,2043.64 1108.97,2044.42 1109.12,2045.34 Z M 1103.68,2048.76 C 1103.61,2048.26 1103.5,2047.37 1103.36,2046.09 C 1103.29,2045.59 1103.21,2045.27 1103.14,2045.13 C 1103.21,2044.99 1102.65,2044.6 1101.44,2043.96 C 1099.59,2042.89 1097.77,2043.03 1096,2044.38 C 1094.01,2045.95 1092.3,2048.54 1090.88,2052.17 C 1089.38,2055.73 1088.57,2059.32 1088.42,2062.94 C 1088.28,2066.29 1088.74,2068.56 1089.81,2069.77 C 1090.88,2070.98 1091.87,2071.44 1092.8,2071.16 C 1093.93,2070.8 1095.25,2069.63 1096.74,2067.64 C 1098.09,2065.86 1099.34,2063.73 1100.48,2061.24 C 1101.61,2058.82 1102.4,2056.86 1102.82,2055.37 C 1102.89,2055.09 1102.97,2054.84 1103.04,2054.62 L 1103.04,2053.88 C 1103.25,2052.03 1103.46,2050.53 1103.68,2049.4 C 1103.68,2049.18 1103.71,2049.01 1103.78,2048.86 C 1103.78,2048.79 1103.75,2048.76 1103.68,2048.76 Z "/>
		<path id="dp_path012" fill="black" d="M 1140.19,2049.08 C 1140.05,2047.65 1139.84,2046.48 1139.55,2045.56 C 1139.27,2044.63 1139.02,2044.1 1138.81,2043.96 L 1138.38,2043.64 C 1137.6,2043.42 1136.35,2044.24 1134.65,2046.09 C 1132.51,2048.44 1130.81,2051.49 1129.53,2055.26 C 1128.25,2058.96 1127.93,2062.41 1128.57,2065.61 C 1129.13,2068.6 1131.09,2070.48 1134.43,2071.26 C 1137.92,2072.05 1140.87,2071.37 1143.29,2069.24 C 1147.69,2065.33 1151.11,2058.68 1153.53,2049.29 C 1153.74,2048.51 1154.18,2047.92 1154.86,2047.53 C 1155.53,2047.14 1156.26,2047.05 1157.05,2047.26 C 1157.83,2047.48 1158.41,2047.92 1158.81,2048.6 C 1159.2,2049.27 1159.29,2050 1159.07,2050.78 C 1156.37,2061.31 1152.39,2068.88 1147.13,2073.5 C 1145.28,2075.14 1143.09,2076.24 1140.57,2076.81 C 1138.04,2077.38 1135.57,2077.41 1133.15,2076.92 C 1130.59,2076.28 1128.37,2075.1 1126.49,2073.4 C 1124.6,2071.69 1123.37,2069.45 1122.81,2066.68 C 1122.02,2062.48 1122.43,2058.09 1124.03,2053.5 C 1125.63,2048.92 1127.78,2045.13 1130.49,2042.14 C 1133.76,2038.66 1136.92,2037.31 1139.98,2038.09 C 1143.39,2039.09 1145.38,2042.61 1145.95,2048.65 C 1146.02,2049.43 1145.81,2050.13 1145.31,2050.73 C 1144.81,2051.33 1144.16,2051.67 1143.34,2051.74 C 1142.52,2051.81 1141.81,2051.6 1141.21,2051.1 C 1140.6,2050.61 1140.26,2049.93 1140.19,2049.08 Z "/>
		<path id="dp_path013" fill="black" d="M 1159.5,2034.25 C 1159.71,2033.97 1159.99,2033.54 1160.35,2032.97 C 1160.99,2031.9 1161.77,2030.18 1162.7,2027.8 C 1163.62,2025.41 1164.4,2023.01 1165.04,2020.6 C 1165.75,2017.89 1166.04,2015.73 1165.9,2014.09 C 1165.83,2012.88 1165.54,2012.13 1165.04,2011.85 C 1164.05,2011.42 1163.09,2012.53 1162.16,2015.16 C 1161.31,2017.65 1160.71,2020.56 1160.35,2023.9 C 1159.99,2027.17 1159.71,2030.62 1159.5,2034.25 Z M 1158.64,2054.73 C 1158.57,2056.22 1158.54,2057.82 1158.54,2059.53 L 1158.64,2059.53 C 1162.2,2059.1 1165.68,2057.72 1169.1,2055.37 C 1172.65,2052.95 1174.29,2050.46 1174,2047.9 C 1173.86,2046.77 1173.43,2045.91 1172.72,2045.34 C 1170.59,2043.64 1167.99,2043.96 1164.94,2046.3 C 1162.09,2048.58 1159.99,2051.39 1158.64,2054.73 Z M 1161.84,2064.76 C 1166.25,2069.17 1170.77,2070.84 1175.39,2069.77 C 1177.95,2069.13 1180.69,2065.97 1183.6,2060.28 C 1185.74,2055.94 1187.51,2051.25 1188.94,2046.2 C 1189.15,2045.41 1189.59,2044.83 1190.27,2044.44 C 1190.95,2044.05 1191.67,2043.96 1192.46,2044.17 C 1193.24,2044.38 1193.83,2044.83 1194.22,2045.5 C 1194.61,2046.18 1194.7,2046.91 1194.48,2047.69 C 1192.99,2053.17 1191.07,2058.21 1188.72,2062.84 C 1184.95,2070.16 1180.94,2074.32 1176.67,2075.32 C 1170.34,2076.81 1164.3,2074.89 1158.54,2069.56 L 1158.54,2072.65 C 1158.54,2073.43 1158.25,2074.11 1157.68,2074.68 C 1157.11,2075.25 1156.44,2075.53 1155.66,2075.53 C 1154.87,2075.53 1154.2,2075.25 1153.63,2074.68 C 1153.06,2074.11 1152.78,2073.43 1152.78,2072.65 C 1152.78,2064.33 1152.79,2058.53 1152.83,2055.26 C 1152.87,2051.99 1153.04,2047.1 1153.36,2040.6 C 1153.68,2034.09 1154.2,2028.24 1154.91,2023.05 C 1155.48,2019.14 1156.44,2015.69 1157.79,2012.7 C 1158.86,2010.43 1160.3,2008.58 1162.11,2007.16 C 1163.92,2005.73 1166.11,2005.52 1168.67,2006.52 C 1171.73,2007.58 1173.4,2009.93 1173.68,2013.56 C 1173.9,2015.97 1173.43,2018.93 1172.3,2022.41 C 1171.37,2025.11 1170.2,2027.81 1168.78,2030.52 C 1167.35,2033.22 1166.11,2035.25 1165.04,2036.6 C 1163.83,2038.09 1162.77,2039.12 1161.84,2039.69 C 1161.42,2039.97 1160.49,2040.4 1159.07,2040.97 L 1158.86,2044.06 C 1159.71,2043.21 1160.56,2042.46 1161.42,2041.82 C 1162.84,2040.69 1164.31,2039.81 1165.84,2039.21 C 1167.37,2038.61 1169.08,2038.39 1170.96,2038.57 C 1172.85,2038.75 1174.64,2039.51 1176.35,2040.86 C 1178.34,2042.43 1179.48,2044.56 1179.76,2047.26 C 1180.26,2052.1 1177.77,2056.4 1172.3,2060.17 C 1169.1,2062.3 1165.61,2063.83 1161.84,2064.76 Z "/>
		<path id="dp_path014" fill="black" d="M 1021.44,2123.44 C 1017.03,2124.15 1012.94,2125.19 1009.17,2126.54 C 1006.82,2127.46 1004.32,2128.69 1001.65,2130.22 C 998.984,2131.75 996.833,2133.36 995.197,2135.07 C 993.42,2136.85 992.531,2138.48 992.531,2139.98 C 992.531,2141.61 993.668,2143.25 995.944,2144.88 C 998.647,2146.87 1001.54,2148.3 1004.64,2149.15 C 1007.73,2150 1010.59,2150.27 1013.22,2149.95 C 1015.85,2149.63 1018.2,2148.87 1020.26,2147.66 C 1022.25,2146.45 1023.8,2144.9 1024.9,2143.02 C 1026.01,2141.13 1026.47,2138.71 1026.29,2135.76 C 1026.11,2132.81 1025.1,2129.59 1023.25,2126.11 C 1022.89,2125.4 1022.29,2124.51 1021.44,2123.44 Z M 1036.16,2094.32 C 1034.02,2091.55 1030.82,2089.35 1026.56,2087.71 C 1024.85,2087.07 1022.72,2086.89 1020.16,2087.18 C 1017.6,2087.46 1015.18,2088.21 1012.9,2089.42 C 1008,2091.91 1005.9,2095.07 1006.61,2098.91 C 1006.68,2099.41 1007.53,2100.58 1009.17,2102.43 C 1010.45,2103.85 1012.62,2106.09 1015.68,2109.15 C 1020.37,2113.84 1023.07,2116.58 1023.78,2117.36 C 1027.13,2116.94 1030.54,2116.72 1034.02,2116.72 C 1034.81,2116.72 1035.48,2117.01 1036.05,2117.58 C 1036.62,2118.15 1036.9,2118.82 1036.9,2119.6 C 1036.9,2120.39 1036.62,2121.06 1036.05,2121.63 C 1035.48,2122.2 1034.81,2122.48 1034.02,2122.48 C 1032.03,2122.48 1030.01,2122.55 1027.94,2122.7 L 1028.37,2123.34 C 1031.64,2130.02 1032.76,2135.87 1031.73,2140.88 C 1030.7,2145.9 1027.87,2149.79 1023.25,2152.56 C 1019.2,2155.12 1014.29,2156.15 1008.53,2155.66 C 1002.77,2155.16 997.437,2153.13 992.531,2149.58 C 988.62,2146.73 986.7,2143.5 986.771,2139.87 C 986.771,2136.88 988.193,2133.93 991.037,2131.02 C 993.1,2128.95 995.641,2127.03 998.664,2125.26 C 1001.69,2123.48 1004.55,2122.13 1007.25,2121.2 C 1010.24,2120.07 1013.44,2119.14 1016.85,2118.43 L 1011.73,2113.31 C 1008.46,2110.11 1006.18,2107.76 1004.9,2106.27 C 1002.49,2103.64 1001.13,2101.54 1000.85,2099.98 C 1000.28,2096.49 1000.92,2093.4 1002.77,2090.7 C 1004.62,2087.99 1007.14,2085.86 1010.34,2084.3 C 1013.19,2082.8 1016.25,2081.84 1019.52,2081.42 C 1022.79,2081.06 1025.77,2081.38 1028.48,2082.38 C 1033.81,2084.3 1037.86,2087.07 1040.64,2090.7 C 1041.13,2091.34 1041.33,2092.07 1041.22,2092.88 C 1041.12,2093.7 1040.76,2094.34 1040.16,2094.8 C 1039.55,2095.27 1038.84,2095.44 1038.02,2095.34 C 1037.21,2095.23 1036.58,2094.89 1036.16,2094.32 Z "/>
		<path id="dp_path015" fill="black" d="M 1056.89,2124.08 C 1056.6,2124.23 1056.21,2124.51 1055.71,2124.94 C 1054.36,2126 1052.87,2127.89 1051.23,2130.59 C 1049.88,2132.87 1048.6,2135.21 1047.39,2137.63 C 1046.25,2140.12 1045.54,2141.83 1045.26,2142.75 C 1045.12,2143.11 1044.97,2143.64 1044.83,2144.35 C 1044.33,2147.34 1043.8,2150.25 1043.23,2153.1 C 1043.23,2153.38 1043.2,2153.59 1043.13,2153.74 C 1043.13,2154.02 1043.05,2154.31 1042.91,2154.59 C 1042.77,2154.8 1042.59,2155.02 1042.38,2155.23 C 1041.38,2156.23 1040.28,2156.44 1039.07,2155.87 C 1038.29,2155.51 1037.79,2154.91 1037.58,2154.06 C 1037.51,2153.91 1037.47,2153.74 1037.47,2153.52 L 1037.47,2152.99 L 1037.47,2152.46 C 1037.54,2151.82 1037.72,2150.79 1038.01,2149.36 C 1038.43,2146.95 1038.82,2144.92 1039.18,2143.28 C 1040.1,2137.03 1040.78,2130.66 1041.21,2124.19 C 1041.28,2123.41 1041.61,2122.75 1042.22,2122.22 C 1042.82,2121.68 1043.52,2121.45 1044.3,2121.52 C 1045.08,2121.59 1045.74,2121.93 1046.27,2122.54 C 1046.81,2123.14 1047.04,2123.83 1046.97,2124.62 C 1046.89,2125.4 1046.86,2126.15 1046.86,2126.86 C 1048.64,2124.01 1050.31,2121.91 1051.87,2120.56 C 1054.93,2117.93 1057.7,2117.54 1060.19,2119.39 C 1061.47,2120.31 1062.36,2121.77 1062.86,2123.76 C 1063.21,2125.11 1063.43,2126.82 1063.5,2128.88 C 1063.5,2130.16 1063.45,2132.26 1063.34,2135.18 C 1063.23,2138.09 1063.18,2139.83 1063.18,2140.4 C 1063.11,2144.74 1063.43,2147.83 1064.14,2149.68 C 1064.42,2150.54 1064.8,2151.12 1065.26,2151.44 C 1065.72,2151.76 1066.41,2151.89 1067.34,2151.82 C 1068.76,2151.67 1069.83,2151.32 1070.54,2150.75 C 1071.04,2150.25 1071.85,2149.11 1072.99,2147.34 C 1074.56,2144.92 1076.05,2141.93 1077.47,2138.38 L 1078.11,2136.56 L 1078.11,2136.35 L 1078.22,2135.5 C 1078.29,2135.43 1078.34,2135.34 1078.38,2135.23 C 1078.41,2135.12 1078.43,2135.03 1078.43,2134.96 L 1078.86,2134.22 L 1080.99,2129.1 C 1081.35,2128.39 1081.88,2127.89 1082.59,2127.6 C 1083.3,2127.32 1084.03,2127.34 1084.78,2127.66 C 1085.53,2127.98 1086.04,2128.49 1086.33,2129.2 C 1086.61,2129.91 1086.61,2130.66 1086.33,2131.44 L 1085.05,2134.32 L 1085.05,2134.54 C 1084.9,2135.03 1084.16,2137.03 1082.81,2140.51 C 1081.24,2144.42 1079.61,2147.76 1077.9,2150.54 C 1076.48,2152.74 1075.27,2154.27 1074.27,2155.12 C 1072.64,2156.47 1070.47,2157.29 1067.77,2157.58 C 1065.49,2157.79 1063.53,2157.33 1061.9,2156.19 C 1060.48,2155.19 1059.41,2153.7 1058.7,2151.71 C 1057.77,2149.22 1057.35,2145.42 1057.42,2140.3 C 1057.49,2139.66 1057.56,2137.95 1057.63,2135.18 C 1057.7,2132.4 1057.74,2130.34 1057.74,2128.99 C 1057.67,2127.35 1057.53,2126.11 1057.31,2125.26 C 1057.17,2124.69 1057.03,2124.3 1056.89,2124.08 Z "/>
		<path id="dp_path016" fill="black" d="M 1085.65,2138.06 C 1087.36,2139.05 1089.1,2139.27 1090.88,2138.7 C 1093.08,2137.91 1095,2136.28 1096.64,2133.79 C 1098.2,2131.37 1098.91,2129.1 1098.77,2126.96 C 1098.7,2125.11 1097.85,2123.94 1096.21,2123.44 C 1094.29,2122.73 1092.3,2123.76 1090.24,2126.54 C 1087.89,2129.59 1086.36,2133.43 1085.65,2138.06 Z M 1085.54,2144.24 C 1085.76,2146.31 1086.29,2147.98 1087.14,2149.26 C 1088.92,2151.89 1091.98,2152.71 1096.32,2151.71 C 1099.87,2150.86 1102.65,2148.55 1104.64,2144.78 C 1105.35,2143.43 1105.99,2142.02 1106.56,2140.56 C 1107.13,2139.11 1107.73,2137.42 1108.37,2135.5 C 1109.01,2133.58 1109.58,2131.94 1110.08,2130.59 C 1110.36,2129.88 1110.86,2129.36 1111.57,2129.04 C 1112.28,2128.72 1113.01,2128.71 1113.76,2128.99 C 1114.5,2129.27 1115.04,2129.77 1115.36,2130.48 C 1115.68,2131.19 1115.69,2131.94 1115.41,2132.72 L 1113.92,2137.2 C 1113.21,2139.19 1112.53,2141.04 1111.89,2142.75 C 1111.25,2144.46 1110.54,2146.06 1109.76,2147.55 C 1106.98,2152.81 1102.93,2156.05 1097.6,2157.26 C 1090.7,2158.89 1085.65,2157.29 1082.45,2152.46 C 1079.89,2148.69 1079.07,2143.71 1080,2137.52 C 1080.78,2131.76 1082.66,2126.93 1085.65,2123.02 C 1087.29,2120.88 1089.17,2119.3 1091.3,2118.27 C 1093.44,2117.24 1095.71,2117.11 1098.13,2117.9 C 1102.18,2119.32 1104.32,2122.23 1104.53,2126.64 C 1104.74,2130.06 1103.71,2133.51 1101.44,2136.99 C 1099.09,2140.62 1096.17,2143 1092.69,2144.14 C 1090.27,2144.92 1087.89,2144.95 1085.54,2144.24 Z "/>
		<path id="dp_path017" fill="black" d="M 1114.66,2138.06 C 1116.37,2139.05 1118.11,2139.27 1119.89,2138.7 C 1122.09,2137.91 1124.01,2136.28 1125.65,2133.79 C 1127.21,2131.37 1127.93,2129.1 1127.78,2126.96 C 1127.71,2125.11 1126.86,2123.94 1125.22,2123.44 C 1123.3,2122.73 1121.31,2123.76 1119.25,2126.54 C 1116.9,2129.59 1115.37,2133.43 1114.66,2138.06 Z M 1114.56,2144.24 C 1114.77,2146.31 1115.3,2147.98 1116.16,2149.26 C 1117.93,2151.89 1120.99,2152.71 1125.33,2151.71 C 1128.89,2150.86 1131.66,2148.55 1133.65,2144.78 C 1134.36,2143.43 1135,2142.02 1135.57,2140.56 C 1136.14,2139.11 1136.74,2137.42 1137.38,2135.5 C 1138.02,2133.58 1138.59,2131.94 1139.09,2130.59 C 1139.37,2129.88 1139.87,2129.36 1140.58,2129.04 C 1141.29,2128.72 1142.02,2128.71 1142.77,2128.99 C 1143.52,2129.27 1144.05,2129.77 1144.37,2130.48 C 1144.69,2131.19 1144.71,2131.94 1144.42,2132.72 L 1142.93,2137.2 C 1142.22,2139.19 1141.54,2141.04 1140.9,2142.75 C 1140.26,2144.46 1139.55,2146.06 1138.77,2147.55 C 1136,2152.81 1131.94,2156.05 1126.61,2157.26 C 1119.71,2158.89 1114.66,2157.29 1111.46,2152.46 C 1108.9,2148.69 1108.09,2143.71 1109.01,2137.52 C 1109.79,2131.76 1111.68,2126.93 1114.66,2123.02 C 1116.3,2120.88 1118.18,2119.3 1120.32,2118.27 C 1122.45,2117.24 1124.73,2117.11 1127.14,2117.9 C 1131.2,2119.32 1133.33,2122.23 1133.54,2126.64 C 1133.76,2130.06 1132.73,2133.51 1130.45,2136.99 C 1128.1,2140.62 1125.19,2143 1121.7,2144.14 C 1119.29,2144.92 1116.9,2144.95 1114.56,2144.24 Z "/>
		<path id="dp_path018" fill="black" d="M 1158.33,2140.3 C 1157.97,2138.95 1157.65,2137.49 1157.37,2135.92 C 1156.58,2132.08 1156.16,2130.09 1156.09,2129.95 C 1156.01,2129.67 1155.98,2129.38 1155.98,2129.1 C 1154.34,2126.89 1152.78,2125.79 1151.29,2125.79 C 1149.58,2125.79 1147.87,2127.18 1146.17,2129.95 C 1144.25,2133.08 1143.11,2136.56 1142.75,2140.4 C 1142.33,2144.24 1142.86,2147.16 1144.35,2149.15 C 1145.49,2150.71 1147.13,2151.07 1149.26,2150.22 C 1151.53,2149.29 1153.49,2147.69 1155.13,2145.42 C 1156.19,2143.92 1157.26,2142.22 1158.33,2140.3 Z M 1160.99,2128.24 C 1161.35,2128.88 1161.67,2129.63 1161.95,2130.48 C 1161.95,2130.55 1161.99,2130.63 1162.06,2130.7 C 1164.05,2123.23 1165.79,2114.34 1167.29,2104.03 C 1167.29,2103.82 1167.29,2103.64 1167.29,2103.5 C 1167.29,2103.07 1167.32,2102.29 1167.39,2101.15 C 1167.46,2100.01 1167.5,2099.16 1167.5,2098.59 C 1167.64,2096.67 1167.57,2095.25 1167.29,2094.32 C 1167,2092.9 1166.57,2092.19 1166.01,2092.19 C 1165.22,2092.12 1164.41,2092.79 1163.55,2094.22 C 1161.56,2097.56 1160.42,2103.39 1160.14,2111.71 C 1159.93,2117.68 1160.21,2123.19 1160.99,2128.24 Z M 1154.7,2120.78 C 1154.34,2116.72 1154.24,2112.71 1154.38,2108.72 C 1154.88,2098.48 1157.01,2091.05 1160.78,2086.43 C 1163.27,2083.37 1166.04,2081.95 1169.1,2082.16 C 1170.81,2082.23 1172.28,2082.84 1173.53,2083.98 C 1174.77,2085.11 1175.71,2086.64 1176.35,2088.56 C 1176.85,2090.2 1177.03,2092.37 1176.89,2095.07 C 1176.89,2095.71 1176.83,2096.67 1176.73,2097.95 C 1176.62,2099.23 1176.57,2100.15 1176.57,2100.72 C 1176.57,2101.08 1176.46,2101.47 1176.25,2101.9 C 1173.05,2118.32 1169.1,2131.34 1164.41,2140.94 L 1165.26,2143.82 C 1166.33,2146.8 1167.43,2148.79 1168.57,2149.79 C 1168.85,2150.07 1169.13,2150.22 1169.42,2150.22 C 1169.85,2150.22 1170.38,2149.97 1171.02,2149.47 C 1175.14,2146.27 1178.13,2139.62 1179.98,2129.52 C 1180.12,2128.74 1180.53,2128.12 1181.21,2127.66 C 1181.88,2127.19 1182.61,2127.03 1183.39,2127.18 C 1184.17,2127.32 1184.8,2127.73 1185.26,2128.4 C 1185.72,2129.08 1185.88,2129.81 1185.74,2130.59 C 1183.61,2142.11 1179.91,2149.9 1174.65,2153.95 C 1172.87,2155.3 1171.13,2155.98 1169.42,2155.98 C 1167.71,2155.98 1166.15,2155.37 1164.73,2154.16 C 1163.16,2152.74 1161.77,2150.57 1160.57,2147.66 L 1159.82,2148.83 C 1157.54,2151.96 1154.73,2154.2 1151.39,2155.55 C 1149.61,2156.47 1147.61,2156.72 1145.37,2156.3 C 1143.13,2155.87 1141.22,2154.63 1139.66,2152.56 C 1137.38,2149.43 1136.49,2145.17 1136.99,2139.76 C 1137.49,2135 1138.91,2130.7 1141.26,2126.86 C 1144.1,2122.38 1147.45,2120.1 1151.29,2120.03 C 1152.42,2120.03 1153.56,2120.28 1154.7,2120.78 Z "/>
	</g>
	<path id="dp_path019" fill="none" fill-rule="evenodd" stroke="black" stroke-width="7.33333" d="M 84.3573,512.896 C 115.681,508.717 158.145,506.805 191.657,499.296 C 205.528,496.188 246.545,477.963 256.797,476.499 C 257.985,476.329 258.544,478.649 259.557,477.696"/>
	<g id="dp_dp020" transform="matrix(0.897951,0.440096,-0.440096,0.897951,-225.416,-596.109)">
		<path id="dp_path021" fill="black" d="M 665.593,431.677 L 610.393,409.149 L 610.393,405.309 L 665.593,382.637 L 665.593,387.741 L 617.705,407.229 L 665.593,426.573 Z "/>
		<path id="dp_path022" fill="black" d="M 705.033,384.901 C 702.969,387.245 701.209,390.325 699.737,394.133 C 699.641,394.381 698.521,397.789 696.361,404.349 C 695.737,405.909 694.817,408.253 693.601,411.373 C 693.377,411.973 693.017,413.317 692.521,415.405 C 692.393,415.941 691.377,421.589 689.473,432.365 C 688.657,432.709 687.537,433.413 686.097,434.477 L 686.097,433.541 C 686.097,433.165 685.945,432.901 685.625,432.741 C 685.289,432.901 685.161,432.973 685.257,432.973 C 684.753,432.973 684.281,432.653 683.825,431.997 C 683.369,431.341 683.145,430.757 683.145,430.261 C 683.145,428.853 683.809,427.205 685.137,425.317 C 686.465,423.429 687.081,421.749 686.985,420.277 L 687.273,419.813 L 686.985,419.341 L 693.313,399.197 C 694.753,394.605 695.849,391.461 696.601,389.773 C 698.065,386.341 699.881,383.589 702.033,381.533 C 702.313,381.469 702.537,381.437 702.689,381.437 C 703.409,381.437 704.017,382.325 704.521,384.109 C 704.489,384.389 704.657,384.653 705.033,384.901 Z "/>
		<path id="dp_path023" fill="black" d="M 780.281,409.149 L 725.081,431.677 L 725.081,426.573 L 772.985,407.229 L 725.081,387.741 L 725.081,382.637 L 780.281,405.309 Z "/>
	</g>
</svg>