<?xml version="1.0" encoding="UTF-8" standalone="no"?>
<svg version="1.1" xmlns="http://www.w3.org/2000/svg" xmlns:xlink="http://www.w3.org/1999/xlink" xmlns:i="http://ns.adobe.com/AdobeIllustrator/10.0/" width="2880" height="624">
	<g id="dp_dp001">
		<path id="dp_path002" fill="none" fill-rule="evenodd" stroke="black" stroke-width="21.3333" d="M 1512.05,229.636 C 1503.52,257.755 1484.49,288.651 1470.32,317.98 C 1438.44,383.981 1443.03,371.684 1439.38,400.501 C 1474.22,417.336 1425.88,434.58 1444.61,455.305 C 1450.55,461.887 1458.96,482.768 1454.43,488.967 C 1453,490.917 1444.39,499.204 1445.2,501.908 C 1448.57,513.2 1459.57,517.552 1446.39,528.061 C 1431.65,539.809 1420.54,534.32 1410.9,539.32 C 1402.17,543.848 1400.37,555.932 1391.54,558.525 C 1385.57,560.28 1377.77,560.923 1366.3,560.881"/>
		<path id="dp_path003" fill="none" fill-rule="evenodd" stroke="black" stroke-width="21.3333" d="M 1233.9,227.66 C 1242.5,255.78 1262.5,288.651 1276.79,317.98 C 1291.89,348.964 1298.88,362.692 1302.43,371.519 C 1306.44,381.496 1306.05,385.212 1308.01,400.501 C 1272.86,417.336 1321.62,434.58 1302.73,455.305 C 1296.74,461.887 1288.25,482.768 1292.82,488.967 C 1294.26,490.917 1302.95,499.204 1302.13,501.908 C 1298.73,513.2 1287.64,517.552 1300.93,528.061 C 1315.8,539.809 1327,534.32 1336.73,539.32 C 1345.54,543.848 1347.35,555.932 1356.26,558.525 C 1362.28,560.28 1371.31,562.747 1382.72,560.427"/>
		<path id="dp_path004" fill="none" fill-rule="evenodd" stroke="black" stroke-width="21.3333" d="M 1233.95,227.66 C 1233.71,227.548 1233.61,225.988 1233.58,225.828 C 1233.26,224.033 1233.03,222.359 1232.84,220.691 C 1230.23,198.251 1232.85,171.309 1241.26,149.18 C 1261.51,95.832 1314.75,55.404 1373.47,54.3733 C 1452.53,55.516 1514.6,122.583 1515.41,198.257 C 1515.56,212.204 1513.59,229.811 1509.76,234.607"/>
		<path id="dp_path005" fill="none" fill-rule="evenodd" stroke="black" stroke-width="21.3333" d="M 1305.73,396.043 C 1360.64,396.519 1385.62,396.993 1440.56,397.469"/>
		<path id="dp_path006" fill="none" fill-rule="evenodd" stroke="black" stroke-width="21.3333" d="M 1298.59,505.732 C 1326.53,502.005 1364.39,500.301 1394.28,493.604 C 1406.65,490.832 1443.23,474.579 1452.37,473.273 C 1453.43,473.123 1453.93,475.192 1454.83,474.341"/>
		<path id="dp_path007" fill="none" fill-rule="evenodd" stroke="black" stroke-width="21.3333" d="M 1295.02,463.819 C 1321.68,460.092 1357.82,458.387 1386.34,451.691 C 1398.15,448.919 1433.06,432.665 1441.78,431.36 C 1442.79,431.209 1443.27,433.277 1444.13,432.428"/>
	</g>
	<g id="dp_dp008" transform="matrix(1,0,0,1,8.9108,3.85333)">
		<path id="dp_path009" fill="black" d="M 493.181,191.276 L 475.671,191.276 L 475.671,328.832 C 475.804,340.52 473.248,350.053 468.004,357.432 C 462.737,364.787 453.915,368.587 441.537,368.832 C 433.248,368.853 426.471,366.743 421.204,362.499 C 415.915,358.253 412.204,351.743 410.071,342.965 L 392.471,346.165 C 395.115,357.92 400.537,367.253 408.693,374.187 C 416.848,381.099 427.804,384.632 441.537,384.787 C 457.515,384.476 469.204,380.943 476.581,374.209 C 483.981,367.499 488.648,359.499 490.627,350.253 C 492.604,341.009 493.448,332.453 493.181,324.565 Z "/>
		<path id="dp_path010" fill="black" d="M 527.716,380.12 L 546.093,380.12 L 567.427,329.899 L 667.427,329.899 L 687.937,380.12 L 707.671,380.12 L 628.227,191.276 L 610.093,191.276 Z M 661.027,313.943 L 574.36,313.943 L 618.36,210.343 Z "/>
		<path id="dp_path011" fill="black" d="M 883.049,339.52 C 876.093,349.587 867.493,357.009 857.293,361.765 C 847.093,366.52 837.093,368.876 827.316,368.832 C 810.804,368.676 796.583,364.965 784.649,357.699 C 772.737,350.432 763.537,340.565 757.093,328.099 C 750.649,315.609 747.404,301.476 747.316,285.699 C 747.404,269.92 750.649,255.787 757.093,243.299 C 763.537,230.832 772.737,220.965 784.649,213.699 C 796.583,206.453 810.804,202.743 827.316,202.565 C 836.983,202.543 846.337,204.609 855.36,208.765 C 864.383,212.92 871.937,219.387 877.983,228.143 L 892.383,216.165 C 884.049,205.72 874.337,198.165 863.249,193.499 C 852.183,188.809 840.204,186.52 827.316,186.609 C 807.983,186.765 791.027,191.053 776.449,199.499 C 761.849,207.943 750.471,219.587 742.271,234.432 C 734.093,249.276 729.937,266.365 729.804,285.699 C 729.937,305.032 734.093,322.12 742.271,336.965 C 750.471,351.809 761.849,363.453 776.449,371.899 C 791.027,380.343 807.983,384.632 827.316,384.787 C 841.271,384.899 854.183,382.232 866.093,376.809 C 878.004,371.387 888.449,362.587 897.449,350.432 Z "/>
		<path id="dp_path012" fill="black" d="M 936.871,380.12 L 954.381,380.12 L 954.381,282.565 L 955.981,282.565 L 1051.71,380.12 L 1077.05,380.12 L 976.248,277.787 L 1071.71,191.276 L 1047.45,191.276 L 955.981,274.609 L 954.381,274.609 L 954.381,191.276 L 936.871,191.276 Z "/>
		<path id="dp_path013" fill="black" d="M 1632.69,356.299 C 1640.09,366.453 1649.03,373.765 1659.51,378.232 C 1669.98,382.699 1681.47,384.899 1693.98,384.787 C 1704.36,384.765 1713.98,382.72 1722.83,378.632 C 1731.67,374.543 1738.8,368.565 1744.23,360.699 C 1749.67,352.809 1752.45,343.187 1752.6,331.787 C 1752.36,317.876 1748.98,307.387 1742.49,300.299 C 1736,293.209 1727.96,287.987 1718.36,284.609 C 1708.74,281.209 1699.14,278.12 1689.54,275.299 C 1679.94,272.476 1671.89,268.365 1665.4,262.987 C 1658.91,257.609 1655.54,249.365 1655.27,238.276 C 1655.63,226.299 1659.87,217.343 1667.98,211.432 C 1676.11,205.52 1686.03,202.565 1697.71,202.565 C 1705.83,202.587 1712.89,204.165 1718.94,207.299 C 1724.98,210.453 1730.18,215.076 1734.56,221.232 L 1749.69,210.299 C 1743.25,201.965 1735.65,195.92 1726.89,192.165 C 1718.14,188.387 1708.58,186.543 1698.25,186.609 C 1687.51,186.609 1677.58,188.587 1668.45,192.543 C 1659.34,196.476 1651.96,202.276 1646.38,209.965 C 1640.78,217.632 1637.91,227.076 1637.76,238.276 C 1638,252.365 1641.38,263.099 1647.87,270.453 C 1654.36,277.832 1662.4,283.32 1672,286.965 C 1681.63,290.587 1691.23,293.853 1700.83,296.72 C 1710.43,299.609 1718.47,303.587 1724.96,308.699 C 1731.45,313.787 1734.83,321.499 1735.09,331.787 C 1734.8,343.232 1730.69,352.253 1722.78,358.809 C 1714.85,365.365 1704.8,368.699 1692.65,368.832 C 1683.25,368.809 1674.87,366.832 1667.54,362.853 C 1660.18,358.899 1654.14,352.987 1649.43,345.12 Z "/>
		<path id="dp_path014" fill="black" d="M 1800.16,380.12 L 1817.67,380.12 L 1817.67,214.787 L 1818.2,214.787 L 1933.29,380.12 L 1955.89,380.12 L 1955.89,191.299 L 1938.38,191.299 L 1938.38,356.632 L 1937.85,356.632 L 1822.76,191.276 L 1800.16,191.276 Z "/>
		<path id="dp_path015" fill="black" d="M 2014.91,380.12 L 2134.56,380.12 L 2134.56,364.165 L 2032.43,364.165 L 2032.43,290.565 L 2124.16,290.565 L 2124.16,274.609 L 2032.43,274.609 L 2032.43,207.232 L 2130.29,207.232 L 2130.29,191.276 L 2014.91,191.276 Z "/>
		<path id="dp_path016" fill="black" d="M 2179.89,380.12 L 2299.54,380.12 L 2299.54,364.165 L 2197.4,364.165 L 2197.4,290.565 L 2289.14,290.565 L 2289.14,274.609 L 2197.4,274.609 L 2197.4,207.232 L 2295.27,207.232 L 2295.27,191.276 L 2179.89,191.276 Z "/>
		<path id="dp_path017" fill="black" d="M 2342.65,380.12 L 2400.98,380.12 C 2420.47,379.943 2436.56,377.099 2449.27,371.632 C 2461.96,366.187 2471.96,359.253 2479.29,350.876 C 2486.6,342.52 2491.98,333.853 2495.38,324.943 C 2498.78,316.009 2500.94,307.987 2501.85,300.853 C 2502.78,293.72 2503.18,288.676 2503.05,285.699 C 2503.18,282.72 2502.78,277.676 2501.85,270.543 C 2500.94,263.432 2498.78,255.387 2495.38,246.476 C 2491.98,237.543 2486.6,228.876 2479.29,220.52 C 2471.96,212.143 2461.96,205.232 2449.27,199.765 C 2436.56,194.299 2420.47,191.476 2400.98,191.276 L 2342.65,191.276 Z M 2360.16,207.232 L 2396.45,207.232 C 2413.34,207.209 2428.45,209.965 2441.83,215.543 C 2455.2,221.12 2465.78,229.699 2473.58,241.276 C 2481.38,252.876 2485.36,267.676 2485.54,285.699 C 2485.36,303.72 2481.38,318.52 2473.58,330.12 C 2465.78,341.699 2455.2,350.276 2441.83,355.853 C 2428.45,361.432 2413.34,364.187 2396.45,364.165 L 2360.16,364.165 Z "/>
	</g>
	<g id="dp_dp018" transform="matrix(1,0,0,1,1063.36,-187.195)">
		<path id="dp_path019" fill="black" d="M 276.457,422.319 L 276.311,445.412 C 276.311,448.625 274.804,450.239 271.804,450.239 L 253.977,450.239 C 251.204,450.239 249.817,448.732 249.817,445.732 L 249.817,422.319 L 226.217,422.319 C 223.431,422.319 222.044,420.945 222.044,418.185 L 222.044,400.132 C 222.044,397.145 223.591,395.652 226.684,395.652 L 249.977,395.652 L 249.977,373.119 C 249.977,369.919 251.311,368.319 253.964,368.319 L 271.951,368.319 C 275.057,368.319 276.617,369.919 276.617,373.119 L 276.617,395.652 L 299.804,395.652 C 302.564,395.652 303.951,397.092 303.951,399.985 L 303.951,417.879 C 303.951,420.839 302.417,422.319 299.337,422.319 Z "/>
		<path id="dp_path020" fill="black" d="M 392.444,411.385 L 320.044,411.545 C 317.284,411.545 315.897,410.199 315.897,407.519 L 315.897,393.319 C 315.897,390.425 317.337,388.985 320.204,388.985 L 392.097,388.985 C 394.991,388.985 396.431,390.279 396.431,392.852 L 396.431,406.892 C 396.431,409.892 395.097,411.385 392.444,411.385 Z M 391.937,436.585 L 320.551,436.585 C 319.484,436.585 318.457,436.105 317.497,435.145 C 316.431,434.279 315.897,433.319 315.897,432.252 L 315.897,417.919 C 315.897,415.465 317.231,414.252 319.884,414.252 L 391.617,414.052 C 394.724,414.052 396.271,415.439 396.271,418.225 L 396.271,432.252 C 396.271,435.145 394.831,436.585 391.937,436.585 Z "/>
	</g>
</svg>